/* XPM */
static char * LibertyBSD_4bpp_xpm[] = {
"37 150 17 1",
" 	c None",
".	c #000100",
"+	c #996600",
"@	c #B59F4F",
"#	c #ACA45F",
"$	c #CAB761",
"%	c #DFBC5A",
"&	c #E4C461",
"*	c #E9CA66",
"=	c #E2CD6B",
"-	c #CACCC9",
";	c #EAD36E",
">	c #F2D36B",
",	c #F0D973",
"'	c #F4E27A",
")	c #FDF287",
"!	c #FFFF64",
"         +++++++++++++++++++         ",
"         +++++++++++++++++++         ",
"         +++++++++++++++++++         ",
"         +++++++++++++++++++         ",
"         +++++++++++++++++++         ",
"         +++++++++++++++++++         ",
"         +++++++++++++++++++         ",
"         +++++++++++++++++++         ",
"         +++++++++++++++++++         ",
"         +++++++++++++++++++         ",
"         +++++++++++++++++++         ",
"         +++++++++++++++++++         ",
"         +++++++++++++++++++         ",
"         +++++++++++++++++++         ",
"         +++++++++++++++++++         ",
"         +++++++++++++++++++         ",
"         +++++++++++++++++++         ",
"         +++++++++++++++++++         ",
"         +++++++++++++++++++         ",
"         +++++++++++++++++++         ",
"                                     ",
"                                     ",
"                                     ",
"                                     ",
"                                     ",
"                                     ",
"                                     ",
"                                     ",
"                                     ",
"                                     ",
"         -------------------         ",
"         -------------------         ",
"         -------------------         ",
"         -------------------         ",
"         -------------------         ",
"         -------------------         ",
"         -------------------         ",
"         -------------------         ",
"         -------------------         ",
"         -------------------         ",
"         -------------------         ",
"         -------------------         ",
"         -------------------         ",
"         -------------------         ",
"         -------------------         ",
"         -------------------         ",
"         -------------------         ",
"         -------------------         ",
"         -------------------         ",
"         -------------------         ",
"                                     ",
"                                     ",
"                                     ",
"                                     ",
"                                     ",
"                                     ",
"                                     ",
"                                     ",
"                                     ",
"                                     ",
"         ...................         ",
"         ...................         ",
"         ...................         ",
"         ...................         ",
"         ...................         ",
"         ...................         ",
"         ...................         ",
"         ...................         ",
"         ...................         ",
"         ...................         ",
"         ...................         ",
"         ...................         ",
"         ...................         ",
"         ...................         ",
"         ...................         ",
"         ...................         ",
"         ...................         ",
"         ...................         ",
"         ...................         ",
"         ...................         ",
"                                     ",
"                                     ",
"                                     ",
"                                     ",
"                                     ",
"                                     ",
"                                     ",
"                  =                  ",
"                  '$                 ",
"                 $'=                 ",
"                 =''                 ",
"                #,''$                ",
"                $,''=                ",
"                ;,,,'                ",
"                ,,,,'$               ",
"               =;;,,,'               ",
"               >;;;,,'               ",
"              $>;;;,,,'              ",
"              >;;;;;,,'              ",
"            @&**;;;;;,,=             ",
"@*&*&&&&********;;;;;,,''''')))))'$##",
" @%%%%%%%&&&&****;;;;,,,'''''''')))) ",
"   %%%%%%%%&&&***;;;;;,,,'''''''))'  ",
"    %%%%%%%&&&***;;;;;,,,''''''')'   ",
"     %%%%%&%&&&***;;;;,,,'''''''$    ",
"      %%%%%&&&&**;;;;;,,,''''''#     ",
"       @%%%%%&&***;;;;,,,''''=       ",
"        @%%%%&&***;;;;,,,'''$        ",
"          %%%&&****;;;;,,''@         ",
"          %%&&&****;;;;,,'=          ",
"          %%&&&****;;;,,,'=          ",
"          %%%&&***;;;;,,,''@         ",
"         @%%%&&***;;;;,,,''$         ",
"         %%%&&&**;;;;;,,,''$         ",
"         %%%&&****>;;;,,,'',         ",
"         &%&&&**>@ =,;,,,'''         ",
"        @%%&&&>*     ,,,''''#        ",
"        &&&&&>@       ;'''''=        ",
"        *&&&&          $'''''        ",
"       @*&&@             ='')        ",
"       %&@                 =)#       ",
"       $                    #=       ",
"                                     ",
"                                     ",
"                                     ",
"                                     ",
"                                     ",
"                                     ",
"                                     ",
"                                     ",
"         !!!!!!!!!!!!!!!!!!!         ",
"         !!!!!!!!!!!!!!!!!!!         ",
"         !!!!!!!!!!!!!!!!!!!         ",
"         !!!!!!!!!!!!!!!!!!!         ",
"         !!!!!!!!!!!!!!!!!!!         ",
"         !!!!!!!!!!!!!!!!!!!         ",
"         !!!!!!!!!!!!!!!!!!!         ",
"         !!!!!!!!!!!!!!!!!!!         ",
"         !!!!!!!!!!!!!!!!!!!         ",
"         !!!!!!!!!!!!!!!!!!!         ",
"         !!!!!!!!!!!!!!!!!!!         ",
"         !!!!!!!!!!!!!!!!!!!         ",
"         !!!!!!!!!!!!!!!!!!!         ",
"         !!!!!!!!!!!!!!!!!!!         ",
"         !!!!!!!!!!!!!!!!!!!         ",
"         !!!!!!!!!!!!!!!!!!!         ",
"         !!!!!!!!!!!!!!!!!!!         ",
"         !!!!!!!!!!!!!!!!!!!         ",
"         !!!!!!!!!!!!!!!!!!!         ",
"         !!!!!!!!!!!!!!!!!!!         "};
