/* XPM */
static char * LibertyBSD_1bpp_xpm[] = {
"37 150 3 1",
" 	c None",
".	c #000000",
"+	c #FFFFFF",
".........+++++++++++++++++++.........",
".........+++++++++++++++++++.........",
".........+++++++++++++++++++.........",
".........+++++++++++++++++++.........",
".........+++++++++++++++++++.........",
".........+++++++++++++++++++.........",
".........+++++++++++++++++++.........",
".........+++++++++++++++++++.........",
".........+++++++++++++++++++.........",
".........+++++++++++++++++++.........",
".........+++++++++++++++++++.........",
".........+++++++++++++++++++.........",
".........+++++++++++++++++++.........",
".........+++++++++++++++++++.........",
".........+++++++++++++++++++.........",
".........+++++++++++++++++++.........",
".........+++++++++++++++++++.........",
".........+++++++++++++++++++.........",
".........+++++++++++++++++++.........",
".........+++++++++++++++++++.........",
".....................................",
".....................................",
".....................................",
".....................................",
".....................................",
".....................................",
".....................................",
".....................................",
".....................................",
".....................................",
".........+++++++++++++++++++.........",
".........+++++++++++++++++++.........",
".........+++++++++++++++++++.........",
".........+++++++++++++++++++.........",
".........+++++++++++++++++++.........",
".........+++++++++++++++++++.........",
".........+++++++++++++++++++.........",
".........+++++++++++++++++++.........",
".........+++++++++++++++++++.........",
".........+++++++++++++++++++.........",
".........+++++++++++++++++++.........",
".........+++++++++++++++++++.........",
".........+++++++++++++++++++.........",
".........+++++++++++++++++++.........",
".........+++++++++++++++++++.........",
".........+++++++++++++++++++.........",
".........+++++++++++++++++++.........",
".........+++++++++++++++++++.........",
".........+++++++++++++++++++.........",
".........+++++++++++++++++++.........",
".....................................",
".....................................",
".....................................",
".....................................",
".....................................",
".....................................",
".....................................",
".....................................",
".....................................",
".....................................",
".........+++++++++++++++++++.........",
".........+++++++++++++++++++.........",
".........+++++++++++++++++++.........",
".........+++++++++++++++++++.........",
".........+++++++++++++++++++.........",
".........+++++++++++++++++++.........",
".........+++++++++++++++++++.........",
".........+++++++++++++++++++.........",
".........+++++++++++++++++++.........",
".........+++++++++++++++++++.........",
".........+++++++++++++++++++.........",
".........+++++++++++++++++++.........",
".........+++++++++++++++++++.........",
".........+++++++++++++++++++.........",
".........+++++++++++++++++++.........",
".........+++++++++++++++++++.........",
".........+++++++++++++++++++.........",
".........+++++++++++++++++++.........",
".........+++++++++++++++++++.........",
".........+++++++++++++++++++.........",
".....................................",
".....................................",
".....................................",
".....................................",
".....................................",
".....................................",
".....................................",
"..................+..................",
".................+++.................",
".................+++.................",
".................+++.................",
"................+++++................",
"................+++++................",
"................+++++................",
"...............+++++++...............",
"...............+++++++...............",
"...............+++++++...............",
"..............+++++++++..............",
"..............+++++++++..............",
".............+++++++++++.............",
"+++++++++++++++++++++++++++++++++++++",
".+++++++++++++++++++++++++++++++++++.",
"..+++++++++++++++++++++++++++++++++..",
"...+++++++++++++++++++++++++++++++...",
"....+++++++++++++++++++++++++++++....",
".....+++++++++++++++++++++++++++.....",
".......+++++++++++++++++++++++.......",
"........+++++++++++++++++++++........",
".........+++++++++++++++++++.........",
"..........+++++++++++++++++..........",
"..........+++++++++++++++++..........",
".........+++++++++++++++++++.........",
".........+++++++++++++++++++.........",
".........+++++++++++++++++++.........",
".........+++++++++++++++++++.........",
".........+++++++++++++++++++.........",
"........++++++++.....++++++++........",
"........+++++++.......+++++++........",
"........++++++.........++++++........",
"........++++.............++++........",
".......+++.................+++.......",
".......++...................++.......",
".....................................",
".....................................",
".....................................",
".....................................",
".....................................",
".....................................",
".....................................",
".....................................",
".........+++++++++++++++++++.........",
".........+++++++++++++++++++.........",
".........+++++++++++++++++++.........",
".........+++++++++++++++++++.........",
".........+++++++++++++++++++.........",
".........+++++++++++++++++++.........",
".........+++++++++++++++++++.........",
".........+++++++++++++++++++.........",
".........+++++++++++++++++++.........",
".........+++++++++++++++++++.........",
".........+++++++++++++++++++.........",
".........+++++++++++++++++++.........",
".........+++++++++++++++++++.........",
".........+++++++++++++++++++.........",
".........+++++++++++++++++++.........",
".........+++++++++++++++++++.........",
".........+++++++++++++++++++.........",
".........+++++++++++++++++++.........",
".........+++++++++++++++++++.........",
".........+++++++++++++++++++........."};
