/* XPM */
static char * LibertyBSD_8bpp_xpm[] = {
"37 150 141 2",
"  	c None",
". 	c #000100",
"+ 	c #010400",
"@ 	c #050804",
"# 	c #996600",
"$ 	c #A79144",
"% 	c #AE903F",
"& 	c #B39543",
"* 	c #AF984B",
"= 	c #B89A48",
"- 	c #AE9E55",
"; 	c #AF9F56",
"> 	c #ABA257",
", 	c #BD9E4C",
"' 	c #ACA358",
") 	c #ACA45F",
"! 	c #C1A148",
"~ 	c #BBA34F",
"{ 	c #BFA651",
"] 	c #C6A54C",
"^ 	c #B3A95E",
"/ 	c #B4AA5F",
"( 	c #C1A853",
"_ 	c #BDAC5C",
": 	c #C4AB56",
"< 	c #C1AF5F",
"[ 	c #C2B060",
"} 	c #B9B568",
"| 	c #D4B151",
"1 	c #CFB358",
"2 	c #CAB65F",
"3 	c #D7B453",
"4 	c #CCB861",
"5 	c #D2B75B",
"6 	c #C7BB69",
"7 	c #DCB958",
"8 	c #CCBE65",
"9 	c #DEBA59",
"0 	c #E0BB54",
"a 	c #DFBB5A",
"b 	c #D2BE66",
"c 	c #E6BA55",
"d 	c #E1BC55",
"e 	c #CEC067",
"f 	c #E0BC5B",
"g 	c #DBBE5B",
"h 	c #E1BD5D",
"i 	c #DBBF63",
"j 	c #E3BE57",
"k 	c #E2BE5E",
"l 	c #DDC05D",
"m 	c #D7C264",
"n 	c #E3BF5F",
"o 	c #DFC15E",
"p 	c #E6C059",
"q 	c #E5C060",
"r 	c #E0C25F",
"s 	c #E6C161",
"t 	c #E1C360",
"u 	c #D3C66C",
"v 	c #E8C25B",
"w 	c #E2C461",
"x 	c #D5C76D",
"y 	c #CEC973",
"z 	c #DCC668",
"A 	c #E3C562",
"B 	c #E9C45C",
"C 	c #E4C663",
"D 	c #EBC65E",
"E 	c #E6C864",
"F 	c #EDC75F",
"G 	c #E8C95F",
"H 	c #E7C965",
"I 	c #EEC860",
"J 	c #E9CA60",
"K 	c #E8CA67",
"L 	c #E9CB68",
"M 	c #F0CA62",
"N 	c #EBCC62",
"O 	c #EACC69",
"P 	c #CACCC9",
"Q 	c #E5CE68",
"R 	c #EBCD6A",
"S 	c #E6CF69",
"T 	c #EECE64",
"U 	c #E0D170",
"V 	c #E8D06A",
"W 	c #EFCF65",
"X 	c #E1D271",
"Y 	c #E9D16B",
"Z 	c #E8D172",
"` 	c #E2D372",
" .	c #EFD06D",
"..	c #EAD26C",
"+.	c #F0D16E",
"@.	c #EBD36D",
"#.	c #E5D574",
"$.	c #ECD46F",
"%.	c #E6D675",
"&.	c #EDD570",
"*.	c #E2D976",
"=.	c #EFD671",
"-.	c #F1D76B",
";.	c #F0D772",
">.	c #ECDA72",
",.	c #F1D973",
"'.	c #E5DC79",
").	c #EDDB73",
"!.	c #F3DA6D",
"~.	c #F2DA74",
"{.	c #F9D96E",
"].	c #EEDC75",
"^.	c #F3DB75",
"/.	c #EFDE76",
"(.	c #F7DD70",
"_.	c #F1DF77",
":.	c #F2E078",
"<.	c #EBE27E",
"[.	c #F3E179",
"}.	c #FAE073",
"|.	c #F4E27A",
"1.	c #F5E37B",
"2.	c #F6E47C",
"3.	c #F9E576",
"4.	c #F8E57D",
"5.	c #F9E67E",
"6.	c #FAE87F",
"7.	c #FBE980",
"8.	c #FCEA81",
"9.	c #F7EC81",
"0.	c #FFEC83",
"a.	c #F9EE83",
"b.	c #FCF085",
"c.	c #FDF186",
"d.	c #FEF287",
"e.	c #FFF388",
"f.	c #FFF489",
"g.	c #FCF78A",
"h.	c #FDF88B",
"i.	c #FFFF64",
"j.	c #FEFF6B",
"                  # # # # # # # # # # # # # # # # # # #                   ",
"                  # # # # # # # # # # # # # # # # # # #                   ",
"                  # # # # # # # # # # # # # # # # # # #                   ",
"                  # # # # # # # # # # # # # # # # # # #                   ",
"                  # # # # # # # # # # # # # # # # # # #                   ",
"                  # # # # # # # # # # # # # # # # # # #                   ",
"                  # # # # # # # # # # # # # # # # # # #                   ",
"                  # # # # # # # # # # # # # # # # # # #                   ",
"                  # # # # # # # # # # # # # # # # # # #                   ",
"                  # # # # # # # # # # # # # # # # # # #                   ",
"                  # # # # # # # # # # # # # # # # # # #                   ",
"                  # # # # # # # # # # # # # # # # # # #                   ",
"                  # # # # # # # # # # # # # # # # # # #                   ",
"                  # # # # # # # # # # # # # # # # # # #                   ",
"                  # # # # # # # # # # # # # # # # # # #                   ",
"                  # # # # # # # # # # # # # # # # # # #                   ",
"                  # # # # # # # # # # # # # # # # # # #                   ",
"                  # # # # # # # # # # # # # # # # # # #                   ",
"                  # # # # # # # # # # # # # # # # # # #                   ",
"                  # # # # # # # # # # # # # # # # # # #                   ",
"                                                                          ",
"                                                                          ",
"                                                                          ",
"                                                                          ",
"                                                                          ",
"                                                                          ",
"                                                                          ",
"                                                                          ",
"                                                                          ",
"                                                                          ",
"                  P P P P P P P P P P P P P P P P P P P                   ",
"                  P P P P P P P P P P P P P P P P P P P                   ",
"                  P P P P P P P P P P P P P P P P P P P                   ",
"                  P P P P P P P P P P P P P P P P P P P                   ",
"                  P P P P P P P P P P P P P P P P P P P                   ",
"                  P P P P P P P P P P P P P P P P P P P                   ",
"                  P P P P P P P P P P P P P P P P P P P                   ",
"                  P P P P P P P P P P P P P P P P P P P                   ",
"                  P P P P P P P P P P P P P P P P P P P                   ",
"                  P P P P P P P P P P P P P P P P P P P                   ",
"                  P P P P P P P P P P P P P P P P P P P                   ",
"                  P P P P P P P P P P P P P P P P P P P                   ",
"                  P P P P P P P P P P P P P P P P P P P                   ",
"                  P P P P P P P P P P P P P P P P P P P                   ",
"                  P P P P P P P P P P P P P P P P P P P                   ",
"                  P P P P P P P P P P P P P P P P P P P                   ",
"                  P P P P P P P P P P P P P P P P P P P                   ",
"                  P P P P P P P P P P P P P P P P P P P                   ",
"                  P P P P P P P P P P P P P P P P P P P                   ",
"                  P P P P P P P P P P P P P P P P P P P                   ",
"                                                                          ",
"                                                                          ",
"                                                                          ",
"                                                                          ",
"                                                                          ",
"                                                                          ",
"                                                                          ",
"                                                                          ",
"                                                                          ",
"                                                                          ",
"                  + + + + + + + + + + + + + + + + + + @                   ",
"                  + + + + + + + + + + + + + + + + + + @                   ",
"                  + + + + + + + + + + + + + + + + + + @                   ",
"                  + + + + + + + + + + + + + + + + + + @                   ",
"                  + + + + + + + + + + + + + + + + + + @                   ",
"                  + + + + + + + + + + + + + + + + + + @                   ",
"                  + + + + + + + + + + + + + + + + + + @                   ",
"                  + + + + + + + + + + + + + + + + + + @                   ",
"                  + + + + + + + + + + + + + + + + + + @                   ",
"                  + + + + + + + + + + + + + + + + + + @                   ",
"                  + + + + + + + + + + + + + + + + + + @                   ",
"                  + + + + + + + + + + + + + + + + + + @                   ",
"                  + + + + + + + + + + + + + + + + + + @                   ",
"                  + + + + + + + + + + + + + + + + + + @                   ",
"                  + + + + + + + + + + + + + + + + + + @                   ",
"                  + + + + + + + + + + + + + + + + + + @                   ",
"                  + + + + + + + + + + + + + + + + + + @                   ",
"                  + + + + + + + + + + + + + + + + + + @                   ",
"                  + + + + + + + + + + + + + + + + + + @                   ",
"                  + + + + + + + + + + + + + + + + + + +                   ",
"                                                                          ",
"                                                                          ",
"                                                                          ",
"                                                                          ",
"                                                                          ",
"                                                                          ",
"                                                                          ",
"                                    U                                     ",
"                                    4.6                                   ",
"                                  8 :.%.                                  ",
"                                  X _.].                                  ",
"                                ; ^.].[.4                                 ",
"                                2 ^.].].#.                                ",
"                                V ;.~.^.1.                                ",
"                                ^.=.;.~.:.b                               ",
"                              z =.=.=.;.~.1.                              ",
"                              !.$.$.=.=.;.1.                              ",
"                            5 +...$.=.=.;.].|.                            ",
"                            {.S Y ..$.=.=.;.3.                            ",
"                        * i R O V ..$.$.=.;.^.Z                           ",
", M D I D F F F G J N N N L K O S Y ..$.=.=.;.].4.5.8.0.c.e.c.e.g.'.y } ) ",
"  & p a a h h k n r w w A A K L O V Y $.$.=.;.~.].:.[.|.4.4.5.8.9.b.h.c.  ",
"      d 9 9 h h h n q w w A A L O S Y ..$.=.;.~.^.].:.|.4.4.5.5.9.c.<.    ",
"        d 9 9 h h k n w w A A K L S V ..$.=.;.;.~.].:.[.1.4.5.5.a.*.      ",
"          c 9 9 d h o q w A A K L O V Y $.=.=.;.~.].:.[.1.4.4.8.u         ",
"            | 0 a h k r w w A K K Q S Y $.$.=.;.~.]._.[.|.4.4.'           ",
"              ! d h h n q w A A K O S Y ..$.=.;.~.]._.[.5.#.              ",
"                % j h n q w A A K O S V ..$.=.;.~.].:.1.e                 ",
"                    a k q w A A K O O V ..$.=.;.~.].]._                   ",
"                    | k r w A A K O O V ..$.=.;.~.].X                     ",
"                    9 k r w A A K O O V ..$.=.;.~.].#.                    ",
"                    k n q w A A K O S Y ..$.=.;.~.].:.-                   ",
"                  = n n q w A A K O S Y ..$.=.;.~.].|.<                   ",
"                  | n n w A A K L Q S Y $.=.=.;.~.].:.u                   ",
"                  p n q w A A K L  .-.$.$.=.=.;.].].:.>.                  ",
"                  v n w w A A L {.:   m (.=.;.;.~.].:.5.                  ",
"                ] s q w A A W L           }.~.;.]._.:.5./                 ",
"                v w w A A T (               S :.]._.:.4.U                 ",
"                I w A A w                     [ ].:.[.1.4.                ",
"              $ J A l {                           ` :.4.d.                ",
"              g r ~                                   ` c.^               ",
"              1                                         > #.              ",
"                                                                          ",
"                                                                          ",
"                                                                          ",
"                                                                          ",
"                                                                          ",
"                                                                          ",
"                                                                          ",
"                                                                          ",
"                  i.i.i.i.i.i.i.i.i.i.i.i.i.i.i.i.i.i.j.                  ",
"                  i.i.i.i.i.i.i.i.i.i.i.i.i.i.i.i.i.i.j.                  ",
"                  i.i.i.i.i.i.i.i.i.i.i.i.i.i.i.i.i.i.j.                  ",
"                  i.i.i.i.i.i.i.i.i.i.i.i.i.i.i.i.i.i.j.                  ",
"                  i.i.i.i.i.i.i.i.i.i.i.i.i.i.i.i.i.i.j.                  ",
"                  i.i.i.i.i.i.i.i.i.i.i.i.i.i.i.i.i.i.j.                  ",
"                  i.i.i.i.i.i.i.i.i.i.i.i.i.i.i.i.i.i.j.                  ",
"                  i.i.i.i.i.i.i.i.i.i.i.i.i.i.i.i.i.i.j.                  ",
"                  i.i.i.i.i.i.i.i.i.i.i.i.i.i.i.i.i.i.j.                  ",
"                  i.i.i.i.i.i.i.i.i.i.i.i.i.i.i.i.i.i.j.                  ",
"                  i.i.i.i.i.i.i.i.i.i.i.i.i.i.i.i.i.i.j.                  ",
"                  i.i.i.i.i.i.i.i.i.i.i.i.i.i.i.i.i.i.j.                  ",
"                  i.i.i.i.i.i.i.i.i.i.i.i.i.i.i.i.i.i.j.                  ",
"                  i.i.i.i.i.i.i.i.i.i.i.i.i.i.i.i.i.i.j.                  ",
"                  i.i.i.i.i.i.i.i.i.i.i.i.i.i.i.i.i.i.j.                  ",
"                  i.i.i.i.i.i.i.i.i.i.i.i.i.i.i.i.i.i.j.                  ",
"                  i.i.i.i.i.i.i.i.i.i.i.i.i.i.i.i.i.i.j.                  ",
"                  i.i.i.i.i.i.i.i.i.i.i.i.i.i.i.i.i.i.j.                  ",
"                  i.i.i.i.i.i.i.i.i.i.i.i.i.i.i.i.i.i.j.                  ",
"                  i.i.i.i.i.i.i.i.i.i.i.i.i.i.i.i.i.i.j.                  "};
