/* XPM */
static char * LibertyBSD_15bpp_xpm[] = {
"37 150 277 2",
"  	c None",
". 	c #996600",
"+ 	c #CCCCCC",
"@ 	c #000000",
"# 	c #070707",
"$ 	c #030303",
"% 	c #E1D073",
"& 	c #F6E47D",
"* 	c #C9BB67",
"= 	c #CEBE66",
"- 	c #F3E07A",
"; 	c #E7D575",
"> 	c #E3D171",
", 	c #F2DE79",
"' 	c #F1DD79",
") 	c #AF9F55",
"! 	c #F1DB77",
"~ 	c #F1DD77",
"{ 	c #F4E079",
"] 	c #C9B965",
"^ 	c #CAB662",
"/ 	c #F1DB75",
"( 	c #F1DC76",
"_ 	c #F2DD77",
": 	c #E7D473",
"< 	c #E8D06F",
"[ 	c #EFD974",
"} 	c #F0DA75",
"| 	c #F1DB76",
"1 	c #F7E27A",
"2 	c #F4DB74",
"3 	c #EED772",
"4 	c #EFD873",
"5 	c #EFDA75",
"6 	c #F4DF78",
"7 	c #CFBE67",
"8 	c #DDC667",
"9 	c #EFD570",
"0 	c #EDD571",
"a 	c #F0DB76",
"b 	c #F4D971",
"c 	c #ECD36E",
"d 	c #EDD470",
"e 	c #EDD671",
"f 	c #EFD975",
"g 	c #F8E279",
"h 	c #CFB75E",
"i 	c #EED26D",
"j 	c #EBD16D",
"k 	c #ECD36F",
"l 	c #EDD570",
"m 	c #EED672",
"n 	c #EED873",
"o 	c #F0DB75",
"p 	c #F6E179",
"q 	c #F7D96F",
"r 	c #E9CE6B",
"s 	c #EBD06C",
"t 	c #EBD26E",
"u 	c #ECD46F",
"v 	c #FBE57B",
"w 	c #B0984D",
"x 	c #DABF61",
"y 	c #EACD69",
"z 	c #E9CD6A",
"A 	c #EACF6C",
"B 	c #E7D271",
"C 	c #BC9E4C",
"D 	c #F0CA61",
"E 	c #EBC65F",
"F 	c #EEC860",
"G 	c #ECC660",
"H 	c #EBC760",
"I 	c #EBC761",
"J 	c #EBC862",
"K 	c #EAC862",
"L 	c #EBC964",
"M 	c #ECCB65",
"N 	c #ECCC66",
"O 	c #EBCC66",
"P 	c #E9CB67",
"Q 	c #E7CA67",
"R 	c #E9CD69",
"S 	c #E9CE6A",
"T 	c #EBD06B",
"U 	c #EED773",
"V 	c #F2DD76",
"W 	c #F9E47B",
"X 	c #FAE77D",
"Y 	c #FDEA80",
"Z 	c #FFEC82",
"` 	c #FFF085",
" .	c #FFF588",
"..	c #FFF187",
"+.	c #FFF489",
"@.	c #FFF78B",
"#.	c #E7DC7D",
"$.	c #CFC872",
"%.	c #BBB568",
"&.	c #ABA45E",
"*.	c #B29447",
"=.	c #E6C05C",
"-.	c #DFBB59",
";.	c #E0BC5A",
">.	c #E1BD5B",
",.	c #E1BF5C",
"'.	c #E2C05D",
").	c #E2C15E",
"!.	c #E3C360",
"~.	c #E4C461",
"{.	c #E5C663",
"].	c #E6C865",
"^.	c #E7C966",
"/.	c #E8CB68",
"(.	c #EACF6B",
"_.	c #F1DC77",
":.	c #F2DF78",
"<.	c #F3E07B",
"[.	c #F4E27C",
"}.	c #F5E47E",
"|.	c #F6E67F",
"1.	c #F7E881",
"2.	c #F9EA83",
"3.	c #F9EB84",
"4.	c #FDF088",
"5.	c #FFF88D",
"6.	c #FCF18A",
"7.	c #E2BC59",
"8.	c #DEB958",
"9.	c #DEBA58",
"0.	c #E0BD5B",
"a.	c #E1BE5C",
"b.	c #E3C15F",
"c.	c #E5C764",
"d.	c #E8CB67",
"e.	c #E8CC69",
"f.	c #EAD06C",
"g.	c #EBD26D",
"h.	c #EDD46F",
"i.	c #EFD773",
"j.	c #F2DD78",
"k.	c #F3E079",
"l.	c #F5E47D",
"m.	c #F6E57F",
"n.	c #F8E983",
"o.	c #F9EB85",
"p.	c #FEF189",
"q.	c #ECE180",
"r.	c #E2BB58",
"s.	c #DEB957",
"t.	c #E1BF5D",
"u.	c #E2C05E",
"v.	c #E3C25F",
"w.	c #EFD772",
"x.	c #F0D974",
"y.	c #F2DF79",
"z.	c #F3E17B",
"A.	c #F5E37D",
"B.	c #F7E781",
"C.	c #F8E982",
"D.	c #FBED85",
"E.	c #E4D87A",
"F.	c #E3BB58",
"G.	c #DDB857",
"H.	c #E0BC59",
"I.	c #E1C05D",
"J.	c #E2C15F",
"K.	c #E4C562",
"L.	c #EFD874",
"M.	c #F4E37D",
"N.	c #F7E680",
"O.	c #FAEB84",
"P.	c #D3C870",
"Q.	c #D8B354",
"R.	c #DFBB58",
"S.	c #DFBB5A",
"T.	c #E4C462",
"U.	c #E7C865",
"V.	c #E8CD69",
"W.	c #ECD36D",
"X.	c #ECD470",
"Y.	c #EED671",
"Z.	c #F7E57F",
"`.	c #F5E57F",
" +	c #ADA25B",
".+	c #C2A14C",
"++	c #E1BC59",
"@+	c #E3C361",
"#+	c #F9E67F",
"$+	c #E6D576",
"%+	c #AE9144",
"&+	c #E2BE5A",
"*+	c #E3C460",
"=+	c #E4C663",
"-+	c #E6C764",
";+	c #E8CC68",
">+	c #F7E37D",
",+	c #D0C06A",
"'+	c #DEBB5A",
")+	c #E3C461",
"!+	c #EED571",
"~+	c #F1DD78",
"{+	c #BBAC5E",
"]+	c #D6B457",
"^+	c #E2BF5D",
"/+	c #E4D171",
"(+	c #DBB959",
"_+	c #E2BF5C",
":+	c #E4C563",
"<+	c #E6C765",
"[+	c #EFD774",
"}+	c #F3DF79",
"|+	c #AD9F57",
"1+	c #B79A4A",
"2+	c #E3BF5D",
"3+	c #F5E17A",
"4+	c #BFB060",
"5+	c #D3B256",
"6+	c #E3C35F",
"7+	c #E7CB67",
"8+	c #EBD36E",
"9+	c #ECD570",
"0+	c #F3DF7A",
"a+	c #D6C56B",
"b+	c #E5C15E",
"c+	c #E5C562",
"d+	c #EDD16B",
"e+	c #F3D76F",
"f+	c #EED36E",
"g+	c #ECD26E",
"h+	c #ECDA77",
"i+	c #E7C35F",
"j+	c #C3AC59",
"k+	c #D9C265",
"l+	c #F8DD74",
"m+	c #FAE77F",
"n+	c #C4A650",
"o+	c #E4C25F",
"p+	c #EDCF69",
"q+	c #F9E076",
"r+	c #F1DA74",
"s+	c #F0D975",
"t+	c #F2DE78",
"u+	c #F9E67E",
"v+	c #B6AA5E",
"w+	c #E6C45F",
"x+	c #E4C361",
"y+	c #EDCE67",
"z+	c #C1A855",
"A+	c #E5CF6E",
"B+	c #E0D174",
"C+	c #ECC963",
"D+	c #E3C463",
"E+	c #C1B05E",
"F+	c #F5E37E",
"G+	c #A99147",
"H+	c #E9C963",
"I+	c #E6C663",
"J+	c #DEC060",
"K+	c #BFA653",
"L+	c #E5D273",
"M+	c #F2E07B",
"N+	c #F6E57E",
"O+	c #FFF286",
"P+	c #DCBE5E",
"Q+	c #E2C260",
"R+	c #BBA251",
"S+	c #E2D374",
"T+	c #B2A95E",
"U+	c #CFB359",
"V+	c #ACA15A",
"W+	c #E2D577",
"X+	c #FFFF69",
"Y+	c #FFFF6E",
"Z+	c #FFFF66",
"`+	c #FFFF6B",
" @	c #FFFF6A",
"                  . . . . . . . . . . . . . . . . . . .                   ",
"                  . . . . . . . . . . . . . . . . . . .                   ",
"                  . . . . . . . . . . . . . . . . . . .                   ",
"                  . . . . . . . . . . . . . . . . . . .                   ",
"                  . . . . . . . . . . . . . . . . . . .                   ",
"                  . . . . . . . . . . . . . . . . . . .                   ",
"                  . . . . . . . . . . . . . . . . . . .                   ",
"                  . . . . . . . . . . . . . . . . . . .                   ",
"                  . . . . . . . . . . . . . . . . . . .                   ",
"                  . . . . . . . . . . . . . . . . . . .                   ",
"                  . . . . . . . . . . . . . . . . . . .                   ",
"                  . . . . . . . . . . . . . . . . . . .                   ",
"                  . . . . . . . . . . . . . . . . . . .                   ",
"                  . . . . . . . . . . . . . . . . . . .                   ",
"                  . . . . . . . . . . . . . . . . . . .                   ",
"                  . . . . . . . . . . . . . . . . . . .                   ",
"                  . . . . . . . . . . . . . . . . . . .                   ",
"                  . . . . . . . . . . . . . . . . . . .                   ",
"                  . . . . . . . . . . . . . . . . . . .                   ",
"                  . . . . . . . . . . . . . . . . . . .                   ",
"                                                                          ",
"                                                                          ",
"                                                                          ",
"                                                                          ",
"                                                                          ",
"                                                                          ",
"                                                                          ",
"                                                                          ",
"                                                                          ",
"                                                                          ",
"                  + + + + + + + + + + + + + + + + + + +                   ",
"                  + + + + + + + + + + + + + + + + + + +                   ",
"                  + + + + + + + + + + + + + + + + + + +                   ",
"                  + + + + + + + + + + + + + + + + + + +                   ",
"                  + + + + + + + + + + + + + + + + + + +                   ",
"                  + + + + + + + + + + + + + + + + + + +                   ",
"                  + + + + + + + + + + + + + + + + + + +                   ",
"                  + + + + + + + + + + + + + + + + + + +                   ",
"                  + + + + + + + + + + + + + + + + + + +                   ",
"                  + + + + + + + + + + + + + + + + + + +                   ",
"                  + + + + + + + + + + + + + + + + + + +                   ",
"                  + + + + + + + + + + + + + + + + + + +                   ",
"                  + + + + + + + + + + + + + + + + + + +                   ",
"                  + + + + + + + + + + + + + + + + + + +                   ",
"                  + + + + + + + + + + + + + + + + + + +                   ",
"                  + + + + + + + + + + + + + + + + + + +                   ",
"                  + + + + + + + + + + + + + + + + + + +                   ",
"                  + + + + + + + + + + + + + + + + + + +                   ",
"                  + + + + + + + + + + + + + + + + + + +                   ",
"                  + + + + + + + + + + + + + + + + + + +                   ",
"                                                                          ",
"                                                                          ",
"                                                                          ",
"                                                                          ",
"                                                                          ",
"                                                                          ",
"                                                                          ",
"                                                                          ",
"                                                                          ",
"                                                                          ",
"                  @ @ @ @ @ @ @ @ @ @ @ @ @ @ @ @ @ @ #                   ",
"                  @ @ @ @ @ @ @ @ @ @ @ @ @ @ @ @ @ @ #                   ",
"                  @ @ @ @ @ @ @ @ @ @ @ @ @ @ @ @ @ @ #                   ",
"                  @ @ @ @ @ @ @ @ @ @ @ @ @ @ @ @ @ @ #                   ",
"                  @ @ @ @ @ @ @ @ @ @ @ @ @ @ @ @ @ @ #                   ",
"                  @ @ @ @ @ @ @ @ @ @ @ @ @ @ @ @ @ @ #                   ",
"                  @ @ @ @ @ @ @ @ @ @ @ @ @ @ @ @ @ @ #                   ",
"                  @ @ @ @ @ @ @ @ @ @ @ @ @ @ @ @ @ @ #                   ",
"                  @ @ @ @ @ @ @ @ @ @ @ @ @ @ @ @ @ @ #                   ",
"                  @ @ @ @ @ @ @ @ @ @ @ @ @ @ @ @ @ @ #                   ",
"                  @ @ @ @ @ @ @ @ @ @ @ @ @ @ @ @ @ @ #                   ",
"                  @ @ @ @ @ @ @ @ @ @ @ @ @ @ @ @ @ @ #                   ",
"                  @ @ @ @ @ @ @ @ @ @ @ @ @ @ @ @ @ @ #                   ",
"                  @ @ @ @ @ @ @ @ @ @ @ @ @ @ @ @ @ @ #                   ",
"                  @ @ @ @ @ @ @ @ @ @ @ @ @ @ @ @ @ @ #                   ",
"                  @ @ @ @ @ @ @ @ @ @ @ @ @ @ @ @ @ @ #                   ",
"                  @ @ @ @ @ @ @ @ @ @ @ @ @ @ @ @ @ @ #                   ",
"                  @ @ @ @ @ @ @ @ @ @ @ @ @ @ @ @ @ @ #                   ",
"                  @ $ $ $ $ $ $ $ $ $ $ $ $ $ $ $ $ $ #                   ",
"                  @ @ @ @ @ @ @ @ @ @ @ @ @ @ @ @ @ @ @                   ",
"                                                                          ",
"                                                                          ",
"                                                                          ",
"                                                                          ",
"                                                                          ",
"                                                                          ",
"                                                                          ",
"                                    %                                     ",
"                                    & *                                   ",
"                                  = - ;                                   ",
"                                  > , '                                   ",
"                                ) ! ~ { ]                                 ",
"                                ^ / ( _ :                                 ",
"                                < [ } | 1                                 ",
"                                2 3 4 5 6 7                               ",
"                              8 9 0 3 [ a 1                               ",
"                              b c d e 3 f g                               ",
"                            h i j k l m n o p                             ",
"                            q r s t u 0 m [ v                             ",
"                        w x y z A j c d e n | B                           ",
"C D E F G H I J K L M N O P Q R S T t u l U [ V W X Y Z `  ...+.@.#.$.%.&.",
"  *.=.-.-.;.>.,.'.).!.~.{.].^./.R (.s k d m 4 } _.:.<.[.}.|.1.2.3.4.5.6.  ",
"      7.8.9.;.0.a.'.b.!.~.c.].d.e.S f.g.h.e i.} | j.k.[.l.m.1.n.o.p.q.    ",
"        r.s.9.;.0.t.u.v.~.{.].^./.S (.j k 0 w.x.a ~ y.z.A.m.B.C.D.E.      ",
"          F.G.9.H.>.I.J.!.K.c.^.d.R (.s c l 3 L.a ~ y.z.M.m.N.O.P.        ",
"            Q.R.S.0.t.).v.T.{.U.Q V.S f.W.X.Y.[ } _., z.[.Z.`. +          ",
"              .+++;.a.u.b.@+{.].Q e.S f.t u Y.4 } _., <.#+$+              ",
"                %+&+a.'.J.*+=+-+^.;+S A g.u Y.4 } ( :.>+,+                ",
"                    '+t.J.)+K.-+^.;+z A g.u !+i.} ( ~+{+                  ",
"                    ]+^+).)+K.-+^.;+R (.g.u !+i.} ( /+                    ",
"                    (+t.).)+K.-+^.;+z (.t u Y.i.} ( :                     ",
"                    _+'.J.*+:+<+^.;+S f.g.u Y.[+} _.}+|+                  ",
"                  1+2+u.J.~.{.].Q e.S f.t X.Y.L.} ( 3+4+                  ",
"                  5+'.u.6+K.c.U.7+V.S s 8+9+m [ } _.0+a+                  ",
"                  b+'.b.@+c+-+^.7+d+e+f+g+l 3 L.o _.}+h+                  ",
"                  i+u.!.T.{.].d.q j+  k+l+!+w.f a j.y.m+                  ",
"                n+o+b.~.c+{.p+P           q+r+s+_.t+- u+v+                ",
"                w+v.x+c+{.y+z+              A+6 _., - & B+                ",
"                C+@+K.{.D+                    E+j.y.z.F+N.                ",
"              G+H+I+J+K+                          L+M+N+O+                ",
"              P+Q+R+                                  S+` T+              ",
"              U+                                        V+W+              ",
"                                                                          ",
"                                                                          ",
"                                                                          ",
"                                                                          ",
"                                                                          ",
"                                                                          ",
"                                                                          ",
"                                                                          ",
"                  X+X+X+X+X+X+X+X+X+X+X+X+X+X+X+X+X+X+Y+                  ",
"                  Z+Z+Z+Z+Z+Z+Z+Z+Z+Z+Z+Z+Z+Z+Z+Z+Z+Z+`+                  ",
"                  Z+Z+Z+Z+Z+Z+Z+Z+Z+Z+Z+Z+Z+Z+Z+Z+Z+Z+ @                  ",
"                  Z+Z+Z+Z+Z+Z+Z+Z+Z+Z+Z+Z+Z+Z+Z+Z+Z+Z+ @                  ",
"                  Z+Z+Z+Z+Z+Z+Z+Z+Z+Z+Z+Z+Z+Z+Z+Z+Z+Z+ @                  ",
"                  Z+Z+Z+Z+Z+Z+Z+Z+Z+Z+Z+Z+Z+Z+Z+Z+Z+Z+ @                  ",
"                  Z+Z+Z+Z+Z+Z+Z+Z+Z+Z+Z+Z+Z+Z+Z+Z+Z+Z+ @                  ",
"                  Z+Z+Z+Z+Z+Z+Z+Z+Z+Z+Z+Z+Z+Z+Z+Z+Z+Z+ @                  ",
"                  Z+Z+Z+Z+Z+Z+Z+Z+Z+Z+Z+Z+Z+Z+Z+Z+Z+Z+ @                  ",
"                  Z+Z+Z+Z+Z+Z+Z+Z+Z+Z+Z+Z+Z+Z+Z+Z+Z+Z+ @                  ",
"                  Z+Z+Z+Z+Z+Z+Z+Z+Z+Z+Z+Z+Z+Z+Z+Z+Z+Z+ @                  ",
"                  Z+Z+Z+Z+Z+Z+Z+Z+Z+Z+Z+Z+Z+Z+Z+Z+Z+Z+ @                  ",
"                  Z+Z+Z+Z+Z+Z+Z+Z+Z+Z+Z+Z+Z+Z+Z+Z+Z+Z+ @                  ",
"                  Z+Z+Z+Z+Z+Z+Z+Z+Z+Z+Z+Z+Z+Z+Z+Z+Z+Z+ @                  ",
"                  Z+Z+Z+Z+Z+Z+Z+Z+Z+Z+Z+Z+Z+Z+Z+Z+Z+Z+ @                  ",
"                  Z+Z+Z+Z+Z+Z+Z+Z+Z+Z+Z+Z+Z+Z+Z+Z+Z+Z+ @                  ",
"                  Z+Z+Z+Z+Z+Z+Z+Z+Z+Z+Z+Z+Z+Z+Z+Z+Z+Z+ @                  ",
"                  Z+Z+Z+Z+Z+Z+Z+Z+Z+Z+Z+Z+Z+Z+Z+Z+Z+Z+ @                  ",
"                  Z+Z+Z+Z+Z+Z+Z+Z+Z+Z+Z+Z+Z+Z+Z+Z+Z+Z+ @                  ",
"                  Z+Z+Z+Z+Z+Z+Z+Z+Z+Z+Z+Z+Z+Z+Z+Z+Z+Z+`+                  "};
